# xmcd
#
# Track frame offsets:
#	183
#	25078
#	57513
#	72250
#	93150
#	114340
#	143583
#
# Disc length: 2301 seconds
#
# Revision: 2
# Processed by: cddbd v1.5.1PL0 Copyright (c) Steve Scherf et al.
# Submitted via: audiograbber 1.83.01
#
DISCID=5508fb07
DTITLE=Marshall Tucker Band, The - Together Forever
DYEAR=1978
DGENRE=Country
TTITLE0=I'll Be Loving You
TTITLE1=Love Is a Mystery
TTITLE2=Singing Rhymes
TTITLE3=Dream Lover
TTITLE4=Everybody Needs Somebody
TTITLE5=Change Is Gonna Come
TTITLE6=Asking Too Much of You
EXTD=
EXTT0=
EXTT1=
EXTT2=
EXTT3=
EXTT4=
EXTT5=
EXTT6=
PLAYORDER=
